{"title":"Maladolescenza (1977) DVD RIP With English Subtitles","uid":9283077,"size":1700289608,"categoryP":"video","categoryS":"movies","magnet":"?xt=urn:btih:475b7c2e2b57da2545e039917c7857cd953c42fb&amp;dn=+Maladolescenza+%281977%29+DVD+RIP+With+English+Subtitles&amp;tr=udp%3A%2F%2Ftracker.openbittorrent.com%3A80&amp;tr=udp%3A%2F%2Fopen.demonii.com%3A1337&amp;tr=udp%3A%2F%2Ftracker.coppersurfer.tk%3A6969&amp;tr=udp%3A%2F%2Fexodus.desync.com%3A6969","seeders":8,"leechers":1,"uploader":"sonicx33","files":-1,"time":1385966523,"description":" &lt;a href=&quot;http://www.imdb.com/title/tt0076749/&quot; rel=&quot;nofollow&quot; target=&quot;_NEW&quot;&gt;http://www.imdb.com/title/tt0076749/&lt;/a&gt;\n\n\nStoryline\n\nA teen boy grows from playing and fighting with his German-shepherd dog, to playing kids and adult games with two equally young girls, in a dream-like forest which eventually turns eerie, and somber.\n\n\n\nAudio: Italian,  German,  Russian\n\n\n\nSubtitles English, German\n\n\nFormat                                   : MPEG-4\nFormat profile                           : Base Media / Version 2\nCodec ID                                 : mp42\nFile size                                : 1.57 GiB\nDuration                                 : 1h 30mn\nOverall bit rate mode                    : Variable\nOverall bit rate                         : 2 471 Kbps\nEncoded date                             : UTC 2013-11-30 02:44:16\nTagged date                              : UTC 2013-11-30 03:44:46\nWriting application                      : HandBrake 0.9.9 2013052900\n\nVideo\nID                                       : 1\nFormat                                   : AVC\nFormat/Info                              : Advanced Video Codec\nFormat profile                           : &lt;a class=&quot;__cf_email__&quot; href=&quot;/cdn-cgi/l/email-protection&quot; data-cfemail=&quot;327a5b555a727e071c00&quot;&gt;[email&amp;#160;protected]&lt;/a&gt;&lt;script cf-hash='f9e31' type=&quot;text/javascript&quot;&gt;\n/* &lt;![CDATA[ */!function(){try{var t=&quot;currentScript&quot;in document?document.currentScript:function(){for(var t=document.getElementsByTagName(&quot;script&quot;),e=t.length;e--;)if(t[e].getAttribute(&quot;cf-hash&quot;))return t[e]}();if(t&amp;&amp;t.previousSibling){var e,r,n,i,c=t.previousSibling,a=c.getAttribute(&quot;data-cfemail&quot;);if(a){for(e=&quot;&quot;,r=parseInt(a.substr(0,2),16),n=2;a.length-n;n+=2)i=parseInt(a.substr(n,2),16)^r,e+=String.fromCharCode(i);e=document.createTextNode(e),c.parentNode.replaceChild(e,c)}}}catch(u){}}();/* ]]&gt; */&lt;/script&gt;\nFormat settings, CABAC                   : Yes\nFormat settings, ReFrames                : 4 frames\nCodec ID                                 : avc1\nCodec ID/Info                            : Advanced Video Coding\nDuration                                 : 1h 30mn\nBit rate                                 : 1 981 Kbps\nWidth                                    : 720 pixels\nHeight                                   : 576 pixels\nDisplay aspect ratio                     : 16:9\nFrame rate mode                          : Variable\nFrame rate                               : 25.000 fps\nMinimum frame rate                       : 16.667 fps\nMaximum frame rate                       : 25.000 fps\nStandard                                 : PAL\nColor space                              : YUV\nChroma subsampling                       : 4:2:0\nBit depth                                : 8 bits\nScan type                                : Progressive\nBits/(Pixel*Frame)                       : 0.191\nStream size                              : 1.26 GiB (80%)\nWriting library                          : x264 core 130 r2273 b3065e6\nEncoding settings                        : cabac=1 / ref=2 / deblock=1:0:0 / \nEncoded date                             : UTC 2013-11-30 02:44:16\nTagged date                              : UTC 2013-11-30 03:44:46\nColor primaries                          : BT.601 PAL\nTransfer characteristics                 : BT.709\nMatrix coefficients                      : BT.601\n\nAudio #1\nID                                       : 2\nFormat                                   : AAC\nFormat/Info                              : Advanced Audio Codec\nFormat profile                           : LC\nCodec ID                                 : 40\nDuration                                 : 1h 30mn\nBit rate mode                            : Variable\nBit rate                                 : 160 Kbps\nMaximum bit rate                         : 193 Kbps\nChannel(s)                               : 2 channels\nChannel positions                        : Front: L R\nSampling rate                            : 48.0 KHz\nCompression mode                         : Lossy\nStream size                              : 104 MiB (6%)\nLanguage                                 : Italian\nEncoded date                             : UTC 2013-11-30 02:44:16\nTagged date                              : UTC 2013-11-30 03:44:45\n\n\n\nAnd yes this movies is okay to watch they sell this movie on amazon.com and ebay it is a mainstream movie","torrent":{"xt":"urn:btih:475b7c2e2b57da2545e039917c7857cd953c42fb","amp;dn":"+Maladolescenza+%281977%29+DVD+RIP+With+English+Subtitles","amp;tr":["udp%3A%2F%2Ftracker.openbittorrent.com%3A80","udp%3A%2F%2Fopen.demonii.com%3A1337","udp%3A%2F%2Ftracker.coppersurfer.tk%3A6969","udp%3A%2F%2Fexodus.desync.com%3A6969"],"infoHash":"475b7c2e2b57da2545e039917c7857cd953c42fb","infoHashBuffer":{"type":"Buffer","data":[71,91,124,46,43,87,218,37,69,224,57,145,124,120,87,205,149,60,66,251]},"announce":[],"urlList":[]}}